<svg width="45" height="24" viewBox="0 0 45 24" fill="none" xmlns="http://www.w3.org/2000/svg">
<path d="M6.86063 11.6428C6.86063 11.4467 6.86063 11.274 6.88565 11.1028C2.61564 10.6359 1.28351 9.38305 1.28351 7.76136C1.28351 6.80267 1.65407 5.99339 2.81421 5.37864C1.65407 5.0845 1.08651 4.5678 1.08651 3.65891C1.08651 2.52902 1.97459 1.96407 3.25825 1.89093C4.7139 1.81778 5.94753 2.16173 7.0592 2.82472C6.36812 2.38272 6.07261 1.96563 6.1461 1.35089C6.29307 0.122949 8.11927 0 11.0806 0C14.0419 0 15.8431 0.0980481 15.9917 1.35089C16.0417 1.94073 15.7446 2.35782 15.0285 2.82472C16.1386 2.16173 17.4473 1.81778 18.903 1.89093C20.1366 1.98898 21.0247 2.43097 21.0247 3.53751C21.0247 4.4464 20.4571 5.01135 19.2719 5.33039C20.4571 5.94514 20.8511 6.77933 20.8511 7.76292C20.8511 9.3846 19.494 10.6374 15.1989 11.1043C15.224 11.2755 15.224 11.4483 15.224 11.6444V11.8654C16.8031 11.8156 18.3573 11.7424 19.8145 11.6693C21.2467 11.5712 22.1098 12.3074 22.1098 13.2661C22.1098 14.396 21.2467 14.9609 19.7895 15.0589C14.3359 15.4527 7.54858 15.4527 2.26854 15.0589C0.86136 14.936 -0.00170898 14.396 -0.00170898 13.2661C-0.00170898 12.3074 0.86136 11.5712 2.26854 11.6693C3.69917 11.7673 5.25488 11.8171 6.85907 11.8654V11.6444L6.86063 11.6428ZM11.0556 15.7935C17.3238 15.7935 21.1247 16.6526 21.1247 19.896C21.1247 23.1394 17.3238 23.9984 11.0556 23.9984C4.78739 23.9984 0.96299 23.0413 0.96299 19.8975C0.96299 16.7538 4.76393 15.7951 11.0556 15.7951V15.7935ZM12.6598 7.29447C13.1773 7.36761 13.2523 6.65638 12.8568 6.58167C11.6231 6.31087 10.7351 5.91868 9.79694 5.25569C9.50144 5.00979 8.95733 5.54983 9.37792 5.89378C10.291 6.60657 11.4762 7.07347 12.6598 7.29447ZM10.513 21.7636C11.4762 21.0025 12.0187 19.7497 12.3893 18.57C12.5863 18.03 11.8717 17.8821 11.7232 18.2759C11.3527 19.3808 10.8351 20.3146 9.92202 21.2484C9.64997 21.5192 10.094 22.0593 10.5146 21.7636H10.513Z" fill="#393939"/>
<path d="M27.3914 22.8452C24.9977 22.8452 23.492 21.1504 23.3935 16.8767C23.295 13.07 23.8125 11.1526 25.2697 9.8515C26.5534 8.72161 27.343 7.71467 27.343 5.4549C27.343 2.87608 28.2811 1.91739 30.6248 1.91739C32.7231 1.91739 33.7832 2.87608 33.7832 5.35685C33.7832 7.42053 35.0418 8.55042 36.3255 9.8764C37.2886 10.8833 38.0031 12.6031 37.8311 17.1226C37.6592 22.0608 36.8195 22.9448 35.0434 22.9448C32.6981 22.9448 31.9085 22.1589 31.9085 17.0993C31.9085 14.1516 31.6364 12.3089 30.6248 10.6639C30.2793 10.1721 29.5147 10.516 29.9588 11.179C30.7483 12.3821 31.0939 14.1516 31.0939 17.4681C31.0939 22.0624 30.1808 22.8483 27.3914 22.8483V22.8452ZM41.4335 23.8039C39.4338 23.8039 38.1016 22.674 38.3487 20.4625C38.9663 15.1819 38.9663 9.87484 38.3737 4.81525C38.1016 2.38272 39.4353 1.22949 41.4335 1.22949C43.1862 1.22949 44.3948 2.21153 44.5919 4.22696C45.1344 9.53245 45.1344 15.5274 44.5919 20.8578C44.3948 22.8234 43.1847 23.8055 41.4335 23.8055V23.8039Z" fill="#393939"/>
</svg>
